<svg xmlns:mydata="http://www.w3.org/2000/svg" mydata:contrastcolor="ffffff" mydata:template="InvertedHex1" mydata:presentation="2.5" mydata:layouttype="undefined" mydata:specialfontid="undefined" mydata:id1="243" mydata:id2="243" mydata:companyname="Kuyumcu App" mydata:companytagline="" version="1.1" xmlns="http://www.w3.org/2000/svg" xmlns:xlink="http://www.w3.org/1999/xlink" style="height: 723px;" viewBox="0 0 550 470"><g fill="#ffffff" fill-rule="none" stroke="none" stroke-width="1" stroke-linecap="butt" stroke-linejoin="miter" stroke-miterlimit="10" stroke-dasharray="" stroke-dashoffset="0" font-family="none" font-weight="none" font-size="none" text-anchor="none" style="mix-blend-mode: normal"><g data-paper-data="{&quot;isGlobalGroup&quot;:true,&quot;bounds&quot;:{&quot;x&quot;:146.00028292617307,&quot;y&quot;:106,&quot;width&quot;:257.9994341476538,&quot;height&quot;:258}}"><g data-paper-data="{&quot;fillRule&quot;:&quot;evenodd&quot;,&quot;fillRuleOriginal&quot;:&quot;evenodd&quot;,&quot;isIcon&quot;:true,&quot;iconStyle&quot;:&quot;standalone&quot;,&quot;selectedEffects&quot;:{&quot;container&quot;:&quot;enclosed_circle_outline3&quot;,&quot;transformation&quot;:&quot;&quot;,&quot;pattern&quot;:&quot;&quot;},&quot;bounds&quot;:{&quot;x&quot;:198.90559111831138,&quot;y&quot;:159.55283189360222,&quot;width&quot;:152.19172828331565,&quot;height&quot;:150.8939589778982},&quot;widthRatioIconToContainer&quot;:1,&quot;heightRatioIconToContainer&quot;:1,&quot;relativeBoundsIconToContainer&quot;:{&quot;top&quot;:0,&quot;left&quot;:0},&quot;iconType&quot;:&quot;icon&quot;,&quot;isDetailed&quot;:false,&quot;source&quot;:&quot;inline&quot;,&quot;rawIconId&quot;:&quot;f7ddb563-aba9-41db-917d-88c1a6becbb1&quot;,&quot;blockLetter&quot;:&quot;O&quot;,&quot;suitableAsStandaloneIcon&quot;:true}" fill-rule="evenodd" id="element-id-38233"><path d="M198.90559,234.99997c0,-41.66838 33.77869,-75.44714 75.44683,-75.44714c17.57226,0 33.74141,6.00804 46.56589,16.08071c-9.76642,-5.43796 -21.01409,-8.53557 -32.98541,-8.53557c-37.50134,0 -67.90215,30.40041 -67.90215,67.902c0,37.50129 30.4008,67.90215 67.90215,67.90215c11.97132,0 23.21899,-3.09792 32.98541,-8.53588c-12.82448,10.07314 -28.99363,16.08055 -46.56589,16.08055c-41.66814,0 -75.44683,-33.77869 -75.44683,-75.44683zM351.09732,234.99997c0,33.33451 -27.0237,60.35748 -60.35795,60.35748c-14.05775,0 -26.99313,-4.80596 -37.2525,-12.86449c7.81295,4.35037 16.81113,6.82868 26.3882,6.82868c30.00105,0 54.32191,-24.3206 54.32191,-54.32168c0,-30.00089 -24.32086,-54.32152 -54.32191,-54.32152c-9.57707,0 -18.57524,2.4784 -26.3882,6.82845c10.25937,-8.05829 23.19474,-12.86456 37.2525,-12.86456c33.33424,0 60.35795,27.02284 60.35795,60.35763zM240.70727,267.76304h11.88066v-65.52647h-11.88066zM292.43393,267.76304h16.86143l-33.67715,-32.76323l33.67715,-32.76323h-16.86143l-26.73156,26.77718h-8.36212v11.97209h8.36212z" data-paper-data="{&quot;isPathIcon&quot;:true}" id="element-id-36457"></path></g><g data-paper-data="{&quot;isPrimaryText&quot;:true}" fill-rule="nonzero" id="element-id-3648"><path d="M178.30297,219.99266l9.23412,-5.44896l0.63388,-3.44347l-11.52182,6.73672l-7.0873,-9.30786l-0.63895,3.47102l8.14508,10.21461l-9.69681,-1.785l-0.45639,2.4793l18.45699,3.39758l0.45639,-2.4793l-5.37181,-0.98885z" data-paper-data="{&quot;glyphName&quot;:&quot;K&quot;,&quot;glyphIndex&quot;:0,&quot;firstGlyphOfWord&quot;:true,&quot;word&quot;:1}" id="element-id-83617"></path><path d="M181.08812,180.00142l-1.11642,2.26027l10.14609,5.01149c3.41552,1.68704 3.65465,4.49189 2.43929,7.0157c-1.21535,2.52381 -3.63832,4.01377 -7.05383,2.32674l-10.14609,-5.01149l-1.11642,2.26027l10.22144,5.0487c4.39497,2.17082 8.45787,0.45992 10.40541,-3.48299c1.94753,-3.94291 0.83694,-8.20917 -3.55803,-10.37999z" data-paper-data="{&quot;glyphName&quot;:&quot;U&quot;,&quot;glyphIndex&quot;:1,&quot;word&quot;:1}" id="element-id-18361"></path><path d="M204.22946,168.12974l-3.27364,-12.78754l-2.04731,2.22711l2.74402,10.09393l-10.23185,-1.94846l-2.04731,2.22711l13.28537,2.43456l5.40282,4.96661l1.83878,-2.00028z" data-paper-data="{&quot;glyphName&quot;:&quot;Y&quot;,&quot;glyphIndex&quot;:2,&quot;word&quot;:1}" id="element-id-86991"></path><path d="M225.49736,138.0829l-2.15715,1.30458l5.85611,9.68319c1.97136,3.25969 0.66385,5.75264 -1.71849,7.22614c-2.38233,1.4735 -5.22636,1.42581 -7.19772,-1.83388l-5.85611,-9.68319l-2.15715,1.30458l5.8996,9.7551c2.53668,4.19445 6.88193,4.93824 10.64495,2.66248c3.76302,-2.27577 5.12223,-6.46944 2.58555,-10.6639z" data-paper-data="{&quot;glyphName&quot;:&quot;U&quot;,&quot;glyphIndex&quot;:3,&quot;word&quot;:1}" id="element-id-80543"></path><path d="M263.13995,145.71389l-4.25493,-18.27839l-0.98212,0.22862l-5.55527,9.86352l-9.47666,-6.36431l-0.98212,0.22862l4.25493,18.27839l2.45531,-0.57156l-3.11181,-13.36778l7.21698,4.93469l0.70931,-0.16512l4.15928,-7.5829l3.11181,13.36778z" data-paper-data="{&quot;glyphName&quot;:&quot;M&quot;,&quot;glyphIndex&quot;:4,&quot;word&quot;:1}" id="element-id-80936"></path><path d="M284.90939,126.55158c-5.64278,-0.41669 -10.18682,3.68547 -10.58289,9.04891c-0.39607,5.36343 3.49612,10.08858 9.1389,10.50527c2.70965,0.2001 4.93075,-0.59084 6.33031,-1.66714l0.18566,-2.51411c-1.38719,0.90869 -3.48511,1.93342 -6.33443,1.72301c-4.19018,-0.30943 -7.05988,-3.66707 -6.75045,-7.85725c0.30943,-4.19018 3.6412,-7.08987 7.83138,-6.78045c2.84932,0.21041 4.25052,1.7744 5.44363,2.7332l0.20422,-2.76552c-1.22628,-1.2702 -2.75667,-2.22582 -5.46632,-2.42592z" data-paper-data="{&quot;glyphName&quot;:&quot;C&quot;,&quot;glyphIndex&quot;:5,&quot;word&quot;:1}" id="element-id-74750"></path><path d="M320.93381,136.33707l-2.35512,-0.89923l-4.03653,10.57188c-1.35883,3.55885 -4.12883,4.06033 -6.75563,3.08736c-2.62679,-0.97297 -4.33771,-3.24531 -2.97888,-6.80416l4.03653,-10.57188l-2.35512,-0.89923l-4.0665,10.65039c-1.7485,4.5794 0.33639,8.46369 4.44477,10.03234c4.10838,1.56865 8.25149,0.06232 9.99998,-4.51708z" data-paper-data="{&quot;glyphName&quot;:&quot;U&quot;,&quot;glyphIndex&quot;:6,&quot;lastGlyphOfWord&quot;:true,&quot;word&quot;:1}" id="element-id-83350"></path><path d="M347.50201,174.91213l-1.99009,4.46874l2.03852,2.23516l7.95836,-19.12419l-0.84938,-0.93132l-19.77421,6.16853l2.03852,2.23516l4.65149,-1.55061zM348.56278,172.54199l-4.53004,-4.96703l7.93389,-2.64871z" data-paper-data="{&quot;glyphName&quot;:&quot;A&quot;,&quot;glyphIndex&quot;:7,&quot;firstGlyphOfWord&quot;:true,&quot;word&quot;:2}" id="element-id-77246"></path><path d="M369.66379,181.41137l-16.89156,8.17797l1.09853,2.26902l6.60536,-3.19795c0.02383,1.07769 0.30318,2.74745 1.14539,4.48702c1.68442,3.47916 5.47256,5.06842 8.4475,3.62812c3.47916,-1.68442 4.25745,-5.73347 2.85377,-8.63277zM363.72784,192.03429c-0.73236,-1.51268 -1.12316,-3.28408 -1.1844,-4.37477l6.07592,-2.94163l1.8553,3.83212c1.04971,2.16817 0.61435,4.86861 -1.52861,5.90611c-1.89085,0.91544 -3.98541,0.12452 -5.21821,-2.42182z" data-paper-data="{&quot;glyphName&quot;:&quot;P&quot;,&quot;glyphIndex&quot;:8,&quot;word&quot;:2}" id="element-id-61123"></path><path d="M380.66787,209.19381l-18.48139,3.26225l0.43821,2.48257l7.22705,-1.27569c-0.27093,1.04335 -0.45746,2.72601 -0.12149,4.62931c0.67193,3.80661 3.88318,6.36858 7.13812,5.79403c3.80661,-0.67193 5.65948,-4.35533 5.09954,-7.52751zM372.06029,217.79564c-0.29214,-1.65505 -0.18513,-3.46589 0.05335,-4.53195l6.64778,-1.17344l0.74009,4.19279c0.41874,2.37224 -0.73645,4.85164 -3.08111,5.2655c-2.06881,0.36518 -3.86835,-0.96691 -4.36012,-3.75291z" data-paper-data="{&quot;glyphName&quot;:&quot;P&quot;,&quot;glyphIndex&quot;:9,&quot;lastGlyphOfWord&quot;:true,&quot;word&quot;:2}" id="element-id-28794"></path></g><g data-paper-data="{&quot;isMirroredPrimaryText&quot;:true}" fill-rule="nonzero" id="element-id-67998"><path d="M175.35536,250.54983l-6.68848,8.38001l0.63388,3.44347l8.36765,-10.39798l9.93721,6.17398l-0.63895,-3.47102l-11.24854,-6.64462l9.69681,-1.785l-0.45639,-2.4793l-18.45699,3.39758l0.45639,2.4793l5.37181,-0.98885z" data-paper-data="{&quot;glyphName&quot;:&quot;K&quot;,&quot;glyphIndex&quot;:0,&quot;firstGlyphOfWord&quot;:true,&quot;word&quot;:1}" id="element-id-85401"></path><path d="M197.6383,281.82379l-1.11642,-2.26027l-10.14609,5.01149c-3.41552,1.68704 -5.78825,0.17227 -7.05383,-2.32674c-1.26558,-2.499 -0.97622,-5.32867 2.43929,-7.0157l10.14609,-5.01149l-1.11642,-2.26027l-10.22144,5.0487c-4.39497,2.17082 -5.50556,6.43708 -3.55803,10.37999c1.94753,3.94291 6.01044,5.65381 10.40541,3.48299z" data-paper-data="{&quot;glyphName&quot;:&quot;U&quot;,&quot;glyphIndex&quot;:1,&quot;word&quot;:1}" id="element-id-30441"></path><path d="M201.44557,304.42929l13.01729,-2.18812l-2.04731,-2.22711l-10.28872,1.8866l2.80089,-10.03207l-2.04731,-2.22711l-3.54172,13.03397l-5.40282,4.96661l1.83878,2.00028z" data-paper-data="{&quot;glyphName&quot;:&quot;Y&quot;,&quot;glyphIndex&quot;:2,&quot;word&quot;:1}" id="element-id-50534"></path><path d="M235.04978,316.12189l-2.15715,-1.30458l-5.85611,9.68319c-1.97136,3.25969 -4.78639,3.25944 -7.19772,1.83388c-2.41132,-1.42556 -3.68985,-3.96645 -1.71849,-7.22614l5.85611,-9.68319l-2.15715,-1.30458l-5.8996,9.7551c-2.53668,4.19445 -1.17747,8.38813 2.58555,10.6639c3.76302,2.27577 8.10827,1.53198 10.64495,-2.66248z" data-paper-data="{&quot;glyphName&quot;:&quot;U&quot;,&quot;glyphIndex&quot;:3,&quot;word&quot;:1}" id="element-id-52403"></path><path d="M258.78976,342.97362l4.25493,-18.27839l-0.98212,-0.22862l-9.34025,6.39607l-5.69168,-9.89527l-0.98212,-0.22862l-4.25493,18.27839l2.45531,0.57156l3.11181,-13.36778l4.29568,7.61466l0.70931,0.16512l7.08057,-4.96644l-3.11181,13.36778z" data-paper-data="{&quot;glyphName&quot;:&quot;M&quot;,&quot;glyphIndex&quot;:4,&quot;word&quot;:1}" id="element-id-94977"></path><path d="M283.49634,324.31315c-5.64278,0.41669 -9.53496,5.14184 -9.1389,10.50527c0.39607,5.36343 4.94011,9.4656 10.58289,9.04891c2.70965,-0.2001 4.79047,-1.30871 6.01676,-2.57891l-0.18566,-2.51411c-1.23866,1.1026 -3.16331,2.42437 -6.01263,2.63478c-4.19018,0.30943 -7.52195,-2.59027 -7.83138,-6.78045c-0.30943,-4.19018 2.56027,-7.54782 6.75045,-7.85725c2.84932,-0.21041 4.46506,1.13079 5.78606,1.90394l-0.20422,-2.76552c-1.39956,-1.0763 -3.05372,-1.79675 -5.76337,-1.59666z" data-paper-data="{&quot;glyphName&quot;:&quot;C&quot;,&quot;glyphIndex&quot;:5,&quot;word&quot;:1}" id="element-id-66447"></path><path d="M314.34947,316.4181l-2.35512,0.89923l4.03653,10.57188c1.35883,3.55885 -0.37207,5.77885 -2.97888,6.80416c-2.60681,1.02531 -5.3968,0.4715 -6.75563,-3.08736l-4.03653,-10.57188l-2.35512,0.89923l4.0665,10.65039c1.7485,4.5794 5.8916,6.08573 9.99998,4.51708c4.10838,-1.56865 6.19326,-5.45293 4.44477,-10.03234z" data-paper-data="{&quot;glyphName&quot;:&quot;U&quot;,&quot;glyphIndex&quot;:6,&quot;lastGlyphOfWord&quot;:true,&quot;word&quot;:1}" id="element-id-63190"></path><path d="M355.05602,301.9772l4.63261,1.57131l2.03852,-2.23516l-19.77421,-6.16853l-0.84938,0.93132l7.95836,19.12419l2.03852,-2.23516l-1.97121,-4.48944zM352.59849,301.13856l-4.53004,4.96703l-3.3661,-7.65713z" data-paper-data="{&quot;glyphName&quot;:&quot;A&quot;,&quot;glyphIndex&quot;:7,&quot;firstGlyphOfWord&quot;:true,&quot;word&quot;:2}" id="element-id-26541"></path><path d="M353.15039,280.59364l16.89156,8.17797l1.09853,-2.26902l-6.60536,-3.19795c0.83059,-0.6871 1.96712,-1.94185 2.80933,-3.68143c1.68442,-3.47916 0.58158,-7.43637 -2.39336,-8.87667c-3.47916,-1.68442 -7.13805,0.21639 -8.54173,3.11569zM365.16489,278.66134c-0.73236,1.51268 -1.8795,2.9179 -2.69708,3.64242l-6.07592,-2.94163l1.8553,-3.83212c1.04971,-2.16817 3.43802,-3.50154 5.58098,-2.46404c1.89085,0.91544 2.56952,3.04903 1.33672,5.59537z" data-paper-data="{&quot;glyphName&quot;:&quot;P&quot;,&quot;glyphIndex&quot;:8,&quot;word&quot;:2}" id="element-id-84089"></path><path d="M362.60024,257.61687l18.48139,3.26225l0.43821,-2.48257l-7.22705,-1.27569c0.61176,-0.88754 1.3631,-2.40465 1.69906,-4.30796c0.67193,-3.80661 -1.46814,-7.31317 -4.72308,-7.88771c-3.80661,-0.67193 -6.80857,2.15453 -7.36851,5.32671zM373.63259,252.48178c-0.29214,1.65505 -1.01265,3.31982 -1.6017,4.23981l-6.64778,-1.17344l0.74009,-4.19279c0.41874,-2.37224 2.35297,-4.30631 4.69763,-3.89244c2.06881,0.36518 3.30354,2.23286 2.81177,5.01886z" data-paper-data="{&quot;glyphName&quot;:&quot;P&quot;,&quot;glyphIndex&quot;:9,&quot;lastGlyphOfWord&quot;:true,&quot;word&quot;:2}" id="element-id-28023"></path></g><g data-paper-data="{&quot;isContainerElementsWrapper&quot;:true}" fill-rule="evenodd" id="element-id-45000"><path d="M183.78347,143.78328c-11.90088,11.90086 -21.11531,25.5683 -27.6433,41.00232c-6.75992,15.98219 -10.13989,32.72029 -10.13989,50.2143c0,17.49358 3.37996,34.23177 10.13989,50.21459c6.52774,15.43331 15.74217,29.10084 27.6433,41.0026c11.90051,11.9005 25.56795,21.11478 41.00232,27.64283c15.98237,6.76005 32.72051,10.14007 50.2144,10.14007c17.49383,0 34.23215,-3.38002 50.21496,-10.14007c15.43394,-6.52805 29.10147,-15.74233 41.0026,-27.64283c11.89987,-11.9005 21.11415,-25.56804 27.64283,-41.0026c6.75942,-15.98219 10.13913,-32.72038 10.13913,-50.21459c0,-17.49345 -3.37971,-34.23155 -10.13913,-50.2143c-6.52868,-15.43394 -15.74296,-29.10138 -27.64283,-41.00232c-11.90113,-11.90063 -25.56867,-21.11509 -41.0026,-27.6434c-15.98281,-6.75992 -32.72113,-10.13989 -50.21496,-10.13989c-17.49383,0 -34.23196,3.37996 -50.2144,10.13989c-15.43391,6.52792 -29.10135,15.74239 -41.00232,27.6434zM147.40737,234.99991c0,-17.30376 3.34293,-33.85916 10.02879,-49.66618c6.45682,-15.2656 15.5709,-28.78409 27.34227,-40.55549c11.77147,-11.77143 25.28997,-20.88555 40.55549,-27.34236c15.80702,-6.68586 32.36245,-10.02879 49.66628,-10.02879c17.30395,0 33.85932,3.34293 49.66609,10.02879c15.26481,6.45638 28.78334,15.5705 40.55558,27.34236c11.77099,11.77109 20.8853,25.28958 27.34293,40.55549c6.68523,15.80677 10.02785,32.36216 10.02785,49.66618c0,17.30433 -3.34262,33.85957 -10.02785,49.66571c-6.457,15.26607 -15.57131,28.78459 -27.34293,40.55558c-11.77161,11.77224 -25.29014,20.88655 -40.55558,27.34293c-15.8074,6.68586 -32.36276,10.02879 -49.66609,10.02879c-17.30452,0 -33.85994,-3.34293 -49.66628,-10.02879c-15.26522,-6.45638 -28.78371,-15.57068 -40.55549,-27.34293c-11.77161,-11.77161 -20.8857,-25.29014 -27.34227,-40.55558c-6.68586,-15.8074 -10.02879,-32.36264 -10.02879,-49.66571z" data-paper-data="{&quot;isAdditionalOutlinePath&quot;:true}" id="element-id-98523"></path><path d="M186.73354,146.73326c-11.5173,11.5173 -20.43428,24.74312 -26.75095,39.67747c-6.54018,15.46286 -9.81028,31.65925 -9.81028,48.58918c0,16.92961 3.27009,33.12616 9.81028,48.58965c6.31667,14.9341 15.23366,28.15964 26.75095,39.67662c11.51839,11.51824 24.74425,20.43513 39.67757,26.75067c15.46405,6.54125 31.66041,9.81188 48.58908,9.81188c16.92923,0 33.12591,-3.27063 48.59002,-9.81188c14.93473,-6.3168 28.16027,-15.23369 39.67662,-26.75067c11.51824,-11.51824 20.43513,-24.74378 26.75067,-39.67662c6.54062,-15.46412 9.81094,-31.66066 9.81094,-48.58965c0,-16.93005 -3.27031,-33.12644 -9.81094,-48.58918c-6.3168,-14.93506 -15.23369,-28.16089 -26.75067,-39.67747c-11.51761,-11.51742 -24.74315,-20.43437 -39.67662,-26.75086c-15.46286,-6.54025 -31.65953,-9.81037 -48.59002,-9.81037c-16.92992,0 -33.12632,3.27012 -48.58918,9.81037c-14.9343,6.31661 -28.16012,15.23356 -39.67747,26.75086zM152.6349,234.99991c0,-16.59689 3.20521,-32.47351 9.61562,-47.62987c6.192,-14.63949 14.93344,-27.60464 26.22433,-38.89546c11.291,-11.29095 24.25615,-20.03237 38.89546,-26.22424c15.15623,-6.41048 31.03285,-9.61572 47.62987,-9.61572c16.59727,0 32.47392,3.20524 47.62996,9.61572c14.63923,6.19187 27.60448,14.93328 38.89575,26.22424c11.29064,11.29049 20.03212,24.25564 26.22443,38.89546c6.40985,15.15604 9.61477,31.03266 9.61477,47.62987c0,16.59702 -3.20492,32.47354 -9.61477,47.62958c-6.19105,14.6386 -14.93253,27.60385 -26.22443,38.89575c-11.29001,11.29064 -24.25526,20.03212 -38.89575,26.22443c-15.15604,6.41048 -31.03269,9.61572 -47.62996,9.61572c-16.5962,0 -32.47285,-3.20524 -47.62996,-9.61572c-14.63863,-6.19168 -27.60379,-14.93316 -38.89546,-26.22443c-11.29089,-11.29064 -20.0323,-24.25589 -26.22424,-38.89575c-6.41042,-15.15667 -9.61562,-31.0332 -9.61562,-47.62958z" data-paper-data="{&quot;isBaseLogoContainer&quot;:true}" id="element-id-12369"></path></g></g></g></svg>